C:\GBW_MyPrograms\KinderuniversiteitApp\Resultaten\TymenKool\Reus_v1.mot
version=1
nRows=15
nColumns=31
inDegrees=yes
endheader
                time	         pelvis_tilt	           pelvis_tx	           pelvis_ty	       hip_flexion_r	        knee_angle_r	       ankle_angle_r	       hip_flexion_l	        knee_angle_l	       ankle_angle_l	    lumbar_extension	          arm_flex_r	          arm_flex_l	hamstrings_r/activation	bifemsh_r/activation	glut_max_r/activation	iliopsoas_r/activation	rect_fem_r/activation	  vasti_r/activation	gastroc_r/activation	 soleus_r/activation	tib_ant_r/activation	hamstrings_l/activation	bifemsh_l/activation	glut_max_l/activation	iliopsoas_l/activation	rect_fem_l/activation	  vasti_l/activation	gastroc_l/activation	 soleus_l/activation	tib_ant_l/activation	
          0.99999983	        -12.32127828	          2.67930779	          5.69853468	         28.64524598	        -33.07945942	         -5.64453109	         31.10311257	        -13.89855558	        -23.26020710	        -15.49335077	        -56.36720572	        -56.36720573	          0.65460626	          0.92331041	          0.12600869	          0.89142188	          0.74494040	          0.30653065	          0.74894608	          0.62854576	          0.30087119	          0.99332587	          0.79062265	          0.89469346	          0.16051218	          0.10334973	          0.41641540	          0.86912889	          0.83907938	          0.13081456	
          1.01999983	        -12.56601592	          2.72761471	          5.67435646	         29.07609015	        -32.81872334	         -8.69831364	         31.79745146	        -15.82019944	        -21.10240043	        -15.44154047	        -55.43963656	        -55.43963657	          0.49109161	          0.69330172	          0.17107495	          0.80177095	          0.88961054	          0.70266825	          0.57088377	          0.47236713	          0.22502441	          0.98267174	          0.59920677	          0.95232678	          0.12218672	          0.14553909	          0.74725660	          0.94215230	          0.93067038	          0.09821570	
          1.03999983	        -12.68486926	          2.77464032	          5.65368286	         29.88972394	        -35.14142836	         -7.85357334	         32.21535834	        -17.82488475	        -17.37186848	        -15.57933924	        -53.53289794	        -53.53289794	          0.36847599	          0.52229885	          0.12897249	          0.91308661	          0.95097021	          0.59000690	          0.42988414	          0.35467261	          0.51528003	          0.98859496	          0.57905922	          0.97545926	          0.09400181	          0.11832652	          0.71946001	          0.97245965	          0.96965108	          0.07397773	
          1.05999982	        -12.71745270	          2.82255207	          5.63454804	         30.52148315	        -37.13119051	         -7.13681527	         32.23395674	        -19.23301369	        -14.12051172	        -15.78617662	        -51.16312656	        -51.16312656	          0.27651284	          0.39433035	          0.09785704	          0.96153808	          0.97790499	          0.82390086	          0.50966576	          0.50788842	          0.38688388	          0.99165896	          0.54151006	          0.98471328	          0.07377588	          0.09746054	          0.61701094	          0.98373792	          0.98668040	          0.05585985	
          1.07999982	        -12.82752985	          2.86866027	          5.61739457	         31.21419654	        -38.87486147	         -7.09447071	         32.12466471	        -20.15151472	        -11.38327997	        -15.93853692	        -47.88814278	        -47.88814277	          0.20774034	          0.29642589	          0.07526326	          0.98185424	          0.98965048	          0.92439385	          0.60133424	          0.38089109	          0.29054769	          0.99304212	          0.42337072	          0.98808629	          0.06147604	          0.08451627	          0.73550573	          0.98622942	          0.99374174	          0.05185489	
          1.09999982	        -13.07780091	          2.91123012	          5.60281458	         32.08446409	        -40.49728433	         -7.53409851	         31.99582781	        -20.61175380	         -9.21129594	        -15.99209874	        -43.44310894	        -43.44310892	          0.15592004	          0.22699047	          0.05858310	          0.99001199	          0.99268797	          0.96754498	          0.45120219	          0.28583430	          0.69575974	          0.99485367	          0.32420226	          0.99165846	          0.05591515	          0.07369715	          0.88266264	          0.96774425	          0.99642738	          0.05227295	
          1.11999981	        -13.37869727	          2.95103059	          5.59043072	         32.90149284	        -41.49078120	         -7.72828928	         31.73704133	        -20.64571026	         -7.34722940	        -16.00713207	        -38.10062749	        -38.10062747	          0.11745477	          0.56772815	          0.05332389	          0.99344183	          0.99297854	          0.73647157	          0.33842455	          0.21420556	          0.54568480	          0.99569120	          0.24700462	          0.99325001	          0.05457553	          0.06867215	          0.94756892	          0.72757795	          0.99704017	          0.05264650	
          1.13999981	        -13.68300239	          2.98845330	          5.57896400	         33.75882478	        -42.56247094	         -7.75339533	         31.30568550	        -20.30784277	         -5.58147771	        -16.00758345	        -32.19976096	        -32.19976094	          0.08846790	          0.49538721	          0.05277214	          0.99520036	          0.99249321	          0.55253354	          0.25417764	          0.16019547	          0.48747536	          0.99636632	          0.18792762	          0.99420299	          0.05374960	          0.06588722	          0.97557470	          0.54716793	          0.99676164	          0.05319992	
          1.15999981	        -13.97157013	          3.02492165	          5.56670621	         34.57775026	        -43.34735592	         -7.62879491	         30.66723684	        -19.62841082	         -3.71854502	        -15.97524544	        -26.22565133	        -26.22565131	          0.06621728	          0.37496958	          0.05207152	          0.99476436	          0.99228775	          0.73464204	          0.19085562	          0.12003425	          0.37282362	          0.99709046	          0.14320134	          0.99548731	          0.05286070	          0.06315853	          0.98727564	          0.41115451	          0.99412560	          0.05428339	
          1.17999980	        -14.20118588	          3.06075424	          5.55383508	         35.33795455	        -44.07263679	         -7.55754833	         29.75986300	        -18.57897086	         -1.75476929	        -15.96646723	        -20.26414396	        -20.26414395	          0.05166665	          0.28140617	          0.05231617	          0.99542290	          0.99428822	          0.88433830	          0.14312547	          0.09027249	          0.27976698	          0.99755164	          0.10963266	          0.99626680	          0.05248032	          0.06064392	          0.99139033	          0.30887830	          0.74576661	          0.06525845	
          1.19999980	        -14.34771255	          3.09661372	          5.54033855	         35.98920936	        -44.80771686	         -7.29883352	         28.53384795	        -17.12502673	          0.31466547	        -16.00972687	        -14.41151082	        -14.41151081	          0.05125351	          0.21101082	          0.05243712	          0.99493146	          0.99600000	          0.93863242	          0.10845589	          0.10106474	          0.20985265	          0.99787176	          0.08481954	          0.99701974	          0.05175194	          0.06056411	          0.99313607	          0.23201446	          0.56007228	          0.59504924	
          1.21999980	        -14.74540740	          3.12918677	          5.52959234	         36.87511453	        -45.35207855	         -7.49881612	         28.27422244	        -16.69836570	          1.37779030	        -15.84584630	         -9.21093264	         -9.21093262	          0.05004494	          0.15838006	          0.05261831	          0.99518771	          0.99726392	          0.91202792	          0.13029322	          0.27734402	          0.15739984	          0.99791884	          0.06728672	          0.99765241	          0.05166991	          0.05884778	          0.99462382	          0.17447581	          0.42019972	          0.81690983	
          1.23999979	        -15.14462531	          3.16156241	          5.52472994	         37.66805299	        -45.68344729	         -8.18860605	         28.70234132	        -17.43547932	          2.18483256	        -15.75615911	         -5.12561074	         -5.12561072	          0.05021714	          0.11899918	          0.05245005	          0.99503307	          0.99721648	          0.96217001	          0.09783857	          0.35287888	          0.11806778	          0.99792013	          0.06010818	          0.99763133	          0.05181953	          0.06041713	          0.99500412	          0.13143335	          0.31530770	          0.73514396	
          1.25999979	        -15.26220373	          3.19881961	          5.52365549	         38.05462908	        -45.95999904	         -8.87263198	         28.79932013	        -18.20915932	          3.01585685	        -15.95344753	         -2.19306463	         -2.19306460	          0.05826826	          0.08975252	          0.05133132	          0.99803406	          0.99774741	          0.98401833	          0.07366034	          0.40020809	          0.08848787	          0.99774357	          0.05846872	          0.99757971	          0.05160111	          0.06069210	          0.99543064	          0.09921747	          0.36715770	          0.58239475	
          1.27999979	        -15.47891142	          3.23705531	          5.52272241	         38.59488894	        -46.30890456	         -9.80676889	         28.93323398	        -18.86028965	          3.68293460	        -16.01677478	          0.36031807	          0.36031810	          0.05009399	          0.06765068	          0.05001070	          0.80330111	          0.99855999	          0.99301424	          0.20899965	          0.30012844	          0.06636597	          0.99774664	          0.05741296	          0.99766725	          0.05159000	          0.06259689	          0.99591538	          0.07479135	          0.72356700	          0.44578403	
